<?xml version="1.0" encoding="UTF-8"?><svg id="Layer_2" xmlns="http://www.w3.org/2000/svg" viewBox="0 0 488.9 133.85"><g id="Layer_1-2"><g id="Text_Logo"><g id="Q"><path d="m65.02,0h0v65.02H0C0,29.13,29.14,0,65.02,0Z" fill="#69d065"/><path d="m68.77,0h0C104.65,0,133.78,29.13,133.78,65.02h-65.02V0h0Z" fill="#ffaf1e"/><path d="m0,68.77h65.02v65.02h0C29.13,133.78,0,104.65,0,68.77H0Z" fill="#fff100"/><path d="m68.77,68.77h65.02c0,35.88-29.13,65.02-65.02,65.02h0v-65.02h0Z" transform="translate(202.55 202.55) rotate(180)" fill="#fbd"/></g><path d="m351.33,34.38h0c-17.95,0-32.51,14.55-32.51,32.51h0c-17.95,0-32.51,14.55-32.51,32.51h0s32.51,0,32.51,0h0s.03,0,.05,0c-.03.58-.05,1.16-.05,1.75h0v32.51c17.95,0,32.51-14.55,32.51-32.51h0v-32.51h0s-.03,0-.05,0c.03-.58.05-1.16.05-1.75v-32.51Z" fill="#69d065"/><path id="R" d="m391.33,68.85v-.09c-17.95,0-32.51,14.55-32.51,32.51h0v32.51c17.95,0,32.51-14.55,32.51-32.51h0v-1.84h2.05c16.84,0,30.49-13.65,30.49-30.49v-.09h-32.55Z" fill="#69d065"/><circle id="O" cx="456.39" cy="101.35" r="32.51" fill="#69d065"/><path id="U" d="m173.47,68.01h32.47v64.93h-32.47c-17.92,0-32.47-14.55-32.47-32.47h0c0-17.92,14.55-32.47,32.47-32.47Z" transform="translate(72.99 273.95) rotate(-90)" fill="#69d065"/><path id="A" d="m245.99,68.01h32.47v64.93h-32.47c-17.92,0-32.47-14.55-32.47-32.47h0c0-17.92,14.55-32.47,32.47-32.47Z" fill="#69d065"/></g></g></svg>